HIERARCHY
ROOT Hips
{
	OFFSET 0.000000 0.000000 0.000000
	CHANNELS 6 Xposition Yposition Zposition Yrotation Xrotation Zrotation
	JOINT Chest
	{
		OFFSET 0.000000 -0.009281 11.569106
		CHANNELS 3 Yrotation Xrotation Zrotation
		JOINT Chest2
		{
			OFFSET -0.000000 0.016865 9.269641
			CHANNELS 3 Yrotation Xrotation Zrotation
			JOINT Chest3
			{
				OFFSET -0.000000 0.000001 8.374491
				CHANNELS 3 Yrotation Xrotation Zrotation
				JOINT Chest4
				{
					OFFSET -0.000000 0.000001 8.374493
					CHANNELS 3 Yrotation Xrotation Zrotation
					JOINT Neck
					{
						OFFSET -0.000000 0.000002 12.152554
						CHANNELS 3 Yrotation Xrotation Zrotation
						JOINT Head
						{
							OFFSET -0.000000 0.040101 7.802319
							CHANNELS 3 Yrotation Xrotation Zrotation
							End Site
							{
								OFFSET -0.000000 0.020947 14.853096
							}
						}
					}
					JOINT RightCollar
					{
						OFFSET 2.894404 0.000001 6.791374
						CHANNELS 3 Yrotation Xrotation Zrotation
						JOINT RightShoulder
						{
							OFFSET 13.574684 0.000001 0.000000
							CHANNELS 3 Yrotation Xrotation Zrotation
							JOINT RightElbow
							{
								OFFSET 23.923903 0.000002 0.000000
								CHANNELS 3 Yrotation Xrotation Zrotation
								JOINT RightWrist
								{
									OFFSET 19.846718 0.012767 0.000000
									CHANNELS 3 Yrotation Xrotation Zrotation
									End Site
									{
										OFFSET 14.973145 0.000001 0.000000
									}
								}
							}
						}
					}
					JOINT LeftCollar
					{
						OFFSET -2.894404 0.000001 6.791374
						CHANNELS 3 Yrotation Xrotation Zrotation
						JOINT LeftShoulder
						{
							OFFSET -13.574684 -0.000001 0.000000
							CHANNELS 3 Yrotation Xrotation Zrotation
							JOINT LeftElbow
							{
								OFFSET -23.923903 -0.000002 0.000000
								CHANNELS 3 Yrotation Xrotation Zrotation
								JOINT LeftWrist
								{
									OFFSET -19.846718 0.012763 0.000000
									CHANNELS 3 Yrotation Xrotation Zrotation
									End Site
									{
										OFFSET -14.973145 -0.000001 0.000000
									}
								}
							}
						}
					}
				}
			}
		}
	}
	JOINT RightHip
	{
		OFFSET 9.469263 0.004643 0.045487
		CHANNELS 3 Yrotation Xrotation Zrotation
		JOINT RightKnee
		{
			OFFSET 0.000000 0.002661 -40.478676
			CHANNELS 3 Yrotation Xrotation Zrotation
			JOINT RightAnkle
			{
				OFFSET 0.000000 0.049106 -35.224068
				CHANNELS 3 Yrotation Xrotation Zrotation
				JOINT RightToe
				{
					OFFSET -0.000001 12.539529 -6.151390
					CHANNELS 3 Yrotation Xrotation Zrotation
					End Site
					{
						OFFSET -0.000001 5.044994 -1.291870
					}
				}
			}
		}
	}
	JOINT LeftHip
	{
		OFFSET -9.469263 0.004641 0.045487
		CHANNELS 3 Yrotation Xrotation Zrotation
		JOINT LeftKnee
		{
			OFFSET 0.000000 0.002661 -40.478676
			CHANNELS 3 Yrotation Xrotation Zrotation
			JOINT LeftAnkle
			{
				OFFSET 0.000000 0.049106 -35.224068
				CHANNELS 3 Yrotation Xrotation Zrotation
				JOINT LeftToe
				{
					OFFSET -0.000001 12.539529 -6.151390
					CHANNELS 3 Yrotation Xrotation Zrotation
					End Site
					{
						OFFSET -0.000001 5.044994 -1.291870
					}
				}
			}
		}
	}
}
MOTION
Frames: 16
Frame Time: 0.016667
9.173458 6.922249 83.116913 -5.866745 -1.590273 -106.931768 -0.542698 -3.423145 1.962783 -0.238581 -1.517820 0.881075 -0.238581 -1.517820 0.881073 -0.176737 -1.138711 0.660174 0.737764 -24.472626 1.123544 1.601112 -9.284703 2.197220 9.771504 2.276148 -6.540845 56.155688 33.938845 22.359635 37.549320 21.010242 39.604825 25.244792 19.129372 -14.439066 -9.332880 -3.889285 -7.055836 -59.989483 40.584906 -27.848479 -37.144802 34.548627 -45.249214 12.516235 66.068727 -22.374899 -0.812845 -5.520475 -1.523248 2.043317 -4.570848 -9.566995 -1.162792 3.699665 1.599821 0.065649 -0.004086 0.002670 -0.797080 -7.144328 2.465163 0.823688 -2.180124 -0.549124 -0.727091 3.614491 0.551258 0.011203 0.013963 -0.011318 
9.188757 6.927953 83.124512 -5.801457 -1.547395 -106.807145 -0.562483 -3.405992 1.953592 -0.247979 -1.510471 0.874874 -0.247979 -1.510471 0.874875 -0.183811 -1.133211 0.655506 0.793534 -24.424944 1.043898 1.682219 -9.195706 2.068987 9.739528 2.445471 -6.543635 55.836889 34.011019 22.222446 37.788039 20.993538 39.801053 25.026013 19.186046 -14.345043 -9.289799 -3.773712 -7.105960 -59.576209 40.101724 -27.739015 -36.802436 33.938431 -45.368237 12.176392 65.245464 -23.021177 -0.819244 -5.547521 -1.574878 2.027411 -4.409538 -9.644667 -1.131828 3.635677 1.606288 0.037305 -0.007094 0.005038 -0.801351 -7.117338 2.496600 0.816089 -2.062420 -0.545015 -0.777427 3.522024 0.413803 0.047092 0.033634 -0.010958 
9.208291 6.929068 83.130951 -5.727624 -1.500312 -106.687541 -0.585514 -3.382299 1.944129 -0.257569 -1.500738 0.868711 -0.257569 -1.500738 0.868713 -0.191033 -1.125923 0.650864 0.867725 -24.373231 0.876627 1.774558 -9.097667 1.788303 9.696870 2.621558 -6.567978 55.554238 34.094020 22.107480 38.005816 20.946197 40.023317 24.740089 19.159258 -14.294907 -9.246682 -3.677708 -7.149663 -59.211784 39.582107 -27.659428 -36.529194 33.382925 -45.609964 11.682337 64.267545 -23.622708 -0.821831 -5.575810 -1.618977 1.999089 -4.232347 -9.734678 -1.088456 3.571215 1.639646 0.010094 -0.012908 0.006291 -0.803212 -7.099143 2.530674 0.800612 -1.915787 -0.579069 -0.828360 3.422351 0.311632 0.079955 0.046263 -0.010482 
9.228061 6.929198 83.136116 -5.648520 -1.450995 -106.563703 -0.611146 -3.357233 1.932791 -0.266463 -1.490752 0.861288 -0.266463 -1.490752 0.861289 -0.197735 -1.118442 0.645280 0.963747 -24.318298 0.628804 1.885803 -8.992382 1.368637 9.653910 2.768126 -6.578415 55.308194 34.231600 22.002078 38.251453 20.891667 40.322124 24.408385 19.103107 -14.240307 -9.223030 -3.591181 -7.214661 -58.905614 39.139795 -27.610379 -36.198705 32.741837 -45.804369 11.453977 63.055582 -23.943136 -0.821163 -5.608478 -1.668279 1.970255 -4.037107 -9.839694 -1.045488 3.502749 1.668712 -0.013900 -0.019399 0.006856 -0.802959 -7.071231 2.541612 0.780762 -1.779322 -0.635222 -0.876682 3.334721 0.241180 0.107278 0.049889 -0.009468 
9.246392 6.928710 83.139336 -5.571235 -1.405193 -106.423677 -0.632542 -3.333646 1.911558 -0.272370 -1.481269 0.851470 -0.272370 -1.481269 0.851471 -0.202203 -1.111334 0.637907 1.071583 -24.264723 0.311869 2.000616 -8.888520 0.827926 9.602938 2.877085 -6.585093 55.129414 34.401006 21.906413 38.538277 20.864444 40.765076 24.153863 19.002122 -14.174540 -9.206094 -3.514714 -7.264728 -58.649325 38.776381 -27.553065 -35.716108 31.861022 -45.795831 11.443296 61.746754 -24.165704 -0.812457 -5.656052 -1.756684 1.932519 -3.824314 -9.962807 -0.991026 3.432925 1.744714 -0.038169 -0.028056 0.006689 -0.798366 -7.034046 2.504156 0.765426 -1.663541 -0.693760 -0.925531 3.256691 0.198694 0.127383 0.049895 -0.008135 
9.264931 6.929878 83.142586 -5.494087 -1.360796 -106.266774 -0.649894 -3.318995 1.887549 -0.276529 -1.475405 0.842370 -0.276529 -1.475405 0.842371 -0.205352 -1.106937 0.631077 1.192168 -24.209734 -0.076673 2.119929 -8.781120 0.161918 9.564304 2.975556 -6.589433 55.044874 34.637009 21.842361 38.829612 20.912767 41.337449 24.142588 18.794869 -14.092296 -9.170181 -3.437612 -7.300495 -58.440779 38.403879 -27.478814 -35.016812 30.831238 -45.520127 10.974570 60.309833 -24.540308 -0.802624 -5.706033 -1.883026 1.896798 -3.608424 -10.100927 -0.929422 3.367015 1.831400 -0.063215 -0.039444 0.005337 -0.796916 -6.984525 2.422799 0.757382 -1.570269 -0.749359 -0.966372 3.186089 0.174562 0.137104 0.050132 -0.007507 
9.281139 6.933875 83.144600 -5.420830 -1.321983 -106.097543 -0.652052 -3.302432 1.861459 -0.274267 -1.468824 0.832191 -0.274267 -1.468824 0.832194 -0.203689 -1.101993 0.623451 1.321066 -24.166867 -0.544511 2.233661 -8.695545 -0.644516 9.525103 3.066554 -6.578588 55.064982 34.956222 21.803163 39.134679 21.091699 42.026127 24.363097 18.518270 -13.885146 -9.146676 -3.308751 -7.297185 -58.173329 37.903629 -27.273294 -34.067867 29.764964 -44.944728 9.531428 58.446625 -24.839726 -0.798027 -5.756504 -2.033699 1.873530 -3.407112 -10.211223 -0.867394 3.310878 1.923308 -0.085422 -0.049222 0.004989 -0.794551 -6.925840 2.313480 0.754209 -1.500550 -0.813592 -0.993739 3.126103 0.173820 0.135019 0.047878 -0.007349 
9.295170 6.943937 83.145050 -5.355646 -1.286003 -105.915026 -0.643240 -3.290949 1.843252 -0.267373 -1.464767 0.825244 -0.267373 -1.464767 0.825244 -0.198541 -1.098939 0.618258 1.468877 -24.141630 -1.098938 2.359103 -8.642506 -1.601882 9.474752 3.137532 -6.572318 55.240531 35.431992 21.819873 39.534959 21.448807 42.787898 24.796708 18.303348 -13.370392 -9.130164 -3.077889 -7.270691 -57.756688 37.249267 -26.855542 -32.972042 28.658678 -44.030220 7.195107 55.878949 -24.521354 -0.798072 -5.797145 -2.189855 1.861727 -3.239700 -10.308086 -0.808668 3.272557 1.980209 -0.103551 -0.058653 0.003819 -0.798255 -6.861255 2.203126 0.758238 -1.452200 -0.897365 -1.012043 3.073994 0.181260 0.127576 0.044491 -0.006730 
9.306893 6.956151 83.143898 -5.297216 -1.250563 -105.724013 -0.616712 -3.294776 1.822046 -0.254109 -1.466954 0.816319 -0.254109 -1.466954 0.816320 -0.188612 -1.100557 0.611596 1.627120 -24.128640 -1.735759 2.482293 -8.612667 -2.704678 9.426124 3.146132 -6.504651 55.582724 36.105814 21.954400 39.995334 22.074036 43.591138 25.523468 18.342924 -12.410376 -9.125429 -2.763183 -7.180417 -57.180930 36.534586 -26.213629 -31.876855 27.411504 -42.803624 4.188353 52.293151 -22.712896 -0.804147 -5.825191 -2.328310 1.856186 -3.112484 -10.427817 -0.754613 3.256273 2.047448 -0.111379 -0.066884 0.005167 -0.807021 -6.790172 2.115427 0.769199 -1.426572 -0.991524 -1.025238 3.033844 0.166462 0.115552 0.038847 -0.006976 
9.315805 6.971491 83.142059 -5.250684 -1.221556 -105.525296 -0.584459 -3.298701 1.810315 -0.238836 -1.469501 0.809739 -0.238836 -1.469501 0.809739 -0.177170 -1.102445 0.606695 1.807705 -24.141239 -2.458366 2.624321 -8.631442 -3.956084 9.395753 3.180264 -6.454997 56.089961 36.776921 22.170813 40.570101 23.046827 44.512913 26.152256 18.798877 -11.021095 -9.093089 -2.553862 -7.101048 -56.417789 36.002306 -25.420427 -30.920201 26.078501 -41.316470 -0.430556 47.342910 -19.240551 -0.808141 -5.835340 -2.445876 1.856565 -3.043580 -10.542533 -0.713867 3.261878 2.070497 -0.107863 -0.068429 0.005817 -0.810212 -6.725239 2.064506 0.772399 -1.408538 -1.106727 -1.031014 2.996713 0.131507 0.104599 0.031088 -0.006259 
9.322469 6.987915 83.140182 -5.225252 -1.201793 -105.321715 -0.553053 -3.294154 1.812258 -0.224149 -1.468256 0.808190 -0.224149 -1.468256 0.808189 -0.166161 -1.101491 0.605569 2.019976 -24.184078 -3.268010 2.802552 -8.707829 -5.355891 9.383407 3.190106 -6.424563 56.828543 37.517256 22.514052 41.128069 24.232215 45.440115 26.404823 19.865913 -9.020282 -8.969182 -2.538843 -6.892688 -55.590695 35.570423 -24.763662 -30.242384 24.643008 -39.517535 -7.225649 42.826297 -14.508143 -0.815872 -5.846288 -2.553739 1.869375 -3.018938 -10.625753 -0.689534 3.284282 2.047992 -0.095096 -0.064596 0.006285 -0.807656 -6.679884 2.021032 0.769928 -1.394611 -1.230812 -1.030266 2.961735 0.096228 0.093580 0.022645 -0.004880 
9.332504 7.005304 83.137390 -5.222910 -1.188485 -105.110491 -0.516664 -3.293227 1.807081 -0.207511 -1.467541 0.803837 -0.207511 -1.467541 0.803836 -0.153694 -1.100931 0.602346 2.251656 -24.249519 -4.139571 3.002051 -8.828315 -6.861905 9.388109 3.110810 -6.357126 57.829572 38.513073 23.087192 41.660653 25.425403 46.209706 25.697929 21.872885 -6.538740 -8.612968 -2.935612 -6.311872 -54.988238 34.929710 -24.697544 -30.063586 23.273327 -37.545939 -14.225118 39.919515 -9.328413 -0.823711 -5.878764 -2.649830 1.887055 -3.004563 -10.687849 -0.681755 3.313925 1.977295 -0.074626 -0.060463 0.006906 -0.805265 -6.658533 1.948110 0.765462 -1.384595 -1.346752 -1.024340 2.933976 0.075623 0.083136 0.011967 -0.004390 
9.345616 7.026843 83.133553 -5.241348 -1.188563 -104.900204 -0.460751 -3.302457 1.767735 -0.181176 -1.470820 0.783823 -0.181176 -1.470819 0.783823 -0.133988 -1.103349 0.587398 2.465770 -24.334402 -5.019312 3.170729 -8.988275 -8.386871 9.405316 3.019799 -6.254827 58.924110 39.569608 23.835820 42.161887 26.642126 46.759861 23.817233 25.069847 -3.670424 -8.265353 -3.212763 -5.639866 -54.202879 33.598554 -24.430268 -30.124198 22.202782 -35.942306 -19.954002 36.553479 -4.651899 -0.835091 -5.926735 -2.738565 1.914367 -3.010975 -10.753954 -0.679485 3.351323 1.929018 -0.051217 -0.053547 0.007268 -0.795115 -6.656991 1.836742 0.750317 -1.388548 -1.422468 -1.007105 2.918803 0.055634 0.073243 -0.000614 -0.005421 
9.360097 7.053217 83.130386 -5.287551 -1.207255 -104.706704 -0.389098 -3.325771 1.684666 -0.147677 -1.480387 0.744344 -0.147677 -1.480387 0.744345 -0.108948 -1.110471 0.557870 2.655168 -24.424101 -5.880216 3.302369 -9.161026 -9.883960 9.451410 2.930684 -6.154457 60.030314 40.443568 24.784374 42.616713 27.978437 47.195531 21.036832 29.132488 -0.803217 -8.186297 -3.486170 -5.393660 -53.355986 31.956406 -23.761523 -29.761542 21.374891 -35.278853 -24.718062 31.585353 -1.450290 -0.840436 -5.990607 -2.816295 1.943820 -3.043884 -10.832093 -0.680273 3.393123 1.900793 -0.027665 -0.042125 0.007483 -0.777322 -6.681114 1.702120 0.731154 -1.410810 -1.465767 -0.986384 2.916464 0.041785 0.066714 -0.012679 -0.004945 
9.372626 7.084922 83.127991 -5.346105 -1.235816 -104.553469 -0.322556 -3.350792 1.586798 -0.117007 -1.491358 0.698966 -0.117007 -1.491358 0.698966 -0.086044 -1.118654 0.523909 2.840820 -24.508030 -6.721173 3.434268 -9.325841 -11.345917 9.507809 2.839930 -6.126736 61.153020 40.948350 25.907944 42.896491 29.519405 47.615052 18.138662 33.078797 1.600537 -8.144561 -4.120574 -5.368065 -53.158768 30.624024 -23.385803 -28.847553 20.388849 -35.261849 -28.148859 28.123598 0.390102 -0.845233 -6.045976 -2.857726 1.971191 -3.107172 -10.914482 -0.683584 3.438780 1.862793 -0.002886 -0.029048 0.009525 -0.761995 -6.712817 1.560950 0.711533 -1.452063 -1.470647 -0.959451 2.923750 0.037333 0.060107 -0.021092 -0.005198 
9.380052 7.122417 83.125305 -5.405498 -1.266392 -104.456474 -0.287341 -3.375398 1.521032 -0.100985 -1.502360 0.668322 -0.100985 -1.502360 0.668323 -0.074092 -1.126882 0.500964 3.043088 -24.576376 -7.542078 3.601898 -9.462680 -12.767574 9.561543 2.874502 -6.195307 62.249197 41.163703 26.994914 42.992161 31.246657 47.966175 15.601933 35.869985 3.299338 -8.173565 -4.610827 -5.363607 -53.243739 29.856239 -23.179814 -27.944763 19.078018 -35.066785 -30.240376 27.872528 0.893894 -0.857125 -6.078473 -2.877538 1.991636 -3.197421 -10.961069 -0.684013 3.487615 1.842650 0.020696 -0.019596 0.011217 -0.758309 -6.743600 1.457507 0.697848 -1.501216 -1.446164 -0.927431 2.936571 0.025828 0.050814 -0.027698 -0.005503 
